<svg xmlns="http://www.w3.org/2000/svg" width="138" height="64" viewBox="0 0 138 64"><path d="M30.92.907 8.935 23.171h-.697V.907H0v49.832h8.237V28.196h.697L31.2 50.74h11.308L17.38 25.125 41.112.907H30.92Zm15.077 49.832h7.888V14.726h-7.888V50.74ZM45.16 4.815C45.16 2.024 47.184 0 49.976 0s4.816 2.024 4.816 4.815c0 2.792-2.024 4.816-4.816 4.816S45.16 7.607 45.16 4.815Zm44.19 27.918c0-8.096-4.606-12.423-11.028-12.423-6.421 0-11.028 4.397-11.028 12.423 0 7.956 4.607 12.423 11.028 12.423 6.422 0 11.028-4.397 11.028-12.423ZM59.546 64V14.726h7.19l.697 5.165h.698c2.932-4.257 7.05-6.142 12.494-6.142 9.214 0 16.752 6.421 16.752 18.984 0 12.493-7.538 18.984-16.752 18.984-5.374 0-9.492-1.815-12.494-6.002h-.698V64h-7.887Zm42.717-29.104v-20.17h7.887v20.17c0 6.91 3.7 10.05 9.981 10.05 6.282 0 9.982-3.35 9.982-10.398V14.726H138v19.822c0 11.864-6.77 17.169-17.869 17.169-11.098 0-17.868-4.956-17.868-16.82" fill="#6C18C9" fill-rule="evenodd"/></svg>
