<svg xmlns="http://www.w3.org/2000/svg" id="Layer_1" width="609" height="148.8" viewBox="0 0 609 148.8"><defs><style>      .st0 {        fill: #002144;      }      .st1 {        fill: #ffab24;      }    </style></defs><g><path class="st0" d="M196.2,119.2c-5.9,0-11-.9-15.2-2.8-4.2-1.9-7.4-4.7-9.7-8.5-2.2-3.8-3.4-8.5-3.4-14.2v-3.9h9.9v3.8c0,5.9,1.5,10.2,4.6,12.8,3.1,2.6,7.6,3.9,13.5,3.9s10.7-1,13.9-3.1c3.1-2.1,4.7-5.5,4.7-10.1s-.9-6-2.7-8.2c-1.8-2.2-4.3-4-7.5-5.6-3.2-1.5-6.9-2.9-11.1-4.2-4.8-1.5-9-3.3-12.7-5.6-3.7-2.2-6.7-5-8.8-8.3-2.1-3.3-3.2-7.3-3.2-12.1s1.1-8.6,3.4-11.8c2.3-3.2,5.4-5.6,9.5-7.3,4.1-1.7,8.8-2.5,14.2-2.5s10.6.9,14.8,2.6,7.4,4.4,9.7,8c2.3,3.6,3.5,8.1,3.5,13.5v4.3h-9.9v-3.9c0-5.6-1.5-9.7-4.6-12-3.1-2.4-7.5-3.6-13.3-3.6s-9.9,1-13,3c-3.1,2-4.6,5.2-4.6,9.7s.9,6.1,2.8,8.3c1.9,2.2,4.4,4,7.7,5.6,3.2,1.5,7,3,11.1,4.4,5.1,1.7,9.4,3.5,13.1,5.7,3.7,2.1,6.5,4.7,8.4,7.9,2,3.1,2.9,7.1,2.9,11.8s-1.1,8.8-3.4,12.2c-2.3,3.4-5.5,5.9-9.7,7.7-4.2,1.8-9.2,2.7-15,2.7Z"></path><path class="st0" d="M254.8,119.1c-4.4,0-8.1-.8-11-2.3-2.9-1.5-5.3-3.5-7-5.9-1.7-2.4-2.9-5.1-3.7-7.9-.7-2.8-1.1-5.6-1.1-8.2v-38.3h9.9v36c0,3.1.4,6,1.3,8.7.9,2.7,2.4,4.8,4.6,6.5,2.2,1.6,5.1,2.5,8.9,2.5s6.7-1.1,9.3-3.2c2.7-2.1,4.8-4.8,6.3-8.1,1.5-3.2,2.3-6.4,2.3-9.7l5.7,2.4c0,3.4-.6,6.7-1.8,10-1.2,3.3-2.9,6.2-5.1,8.9-2.2,2.7-4.9,4.8-8.1,6.4-3.2,1.6-6.7,2.4-10.6,2.4ZM274.7,118v-61.6h9.9v61.6h-9.9Z"></path><path class="st0" d="M294.7,118v-61.6h9.9v61.6h-9.9ZM338.8,118v-37.2c0-3.2-.5-6-1.6-8.4-1.1-2.4-2.8-4.3-5.1-5.6-2.3-1.3-5.4-2-9.1-2s-6.3.8-9.1,2.5c-2.8,1.7-5,3.9-6.7,6.8-1.7,2.8-2.5,6-2.5,9.5l-5.6-2.1c0-4.8,1.2-9.2,3.6-13.2,2.4-3.9,5.5-7.1,9.5-9.4,4-2.3,8.3-3.5,13-3.5s8.9.9,12.5,2.7c3.6,1.8,6.3,4.4,8.3,7.8,2,3.4,2.9,7.5,2.9,12.2v39.8h-9.9Z"></path><path class="st0" d="M365.7,118l-13.4-61.6h10.3l10.9,57.2h-1.8l16.1-57.2h8.8l-17,61.6h-13.9ZM407.3,118l-17.2-61.6h8.8l16.3,57.2h-1.8l10.8-57.2h10.3l-13.3,61.6h-13.8Z"></path><path class="st0" d="M460.1,119.2c-4.7,0-8.8-.7-12.3-2.2-3.5-1.5-6.2-3.6-8.1-6.4-1.9-2.8-2.9-6.1-2.9-9.9s1-7.4,3.1-10.1c2.1-2.7,5-4.8,8.8-6.3,3.8-1.5,8.2-2.5,13.2-3,7.6-.8,13-1.5,16.2-2.3,3.2-.8,4.8-2,4.8-3.7h0v-.2c0-3.6-1.4-6.2-4.3-8-2.9-1.8-7.1-2.6-12.6-2.6s-10.2,1-13.3,3c-3.2,2-4.8,5.2-4.8,9.7h-9.7c0-4.6,1.2-8.5,3.5-11.7,2.4-3.2,5.6-5.7,9.8-7.4,4.2-1.7,9-2.6,14.5-2.6s9.6.8,13.6,2.3c4,1.5,7.2,3.8,9.6,6.8,2.4,3,3.6,6.7,3.6,11.1v30.7c0,1.4,0,2.7.2,3.9.1,1.3.3,2.4.6,3.4.3,1.2.7,2.1,1.2,2.8.4.7.8,1.2,1,1.5h-9.9c-.2-.2-.5-.6-.9-1.4-.4-.7-.8-1.6-1.1-2.5-.3-.8-.5-1.7-.6-2.9-.2-1.2-.2-2.4-.2-3.7l1.6,1.1c-1.2,2.1-2.9,3.9-5.2,5.5-2.3,1.6-5.1,2.8-8.3,3.7-3.2.9-6.9,1.3-11,1.3ZM461.7,110.3c4,0,7.6-.6,10.8-1.8,3.2-1.2,5.8-3,7.7-5.4,1.9-2.4,2.8-5.4,2.8-8.9v-12.2l2.2,3.7c-2.5,1-5.6,1.7-9.3,2.3-3.7.6-7.5,1.1-11.6,1.5-5.8.5-10.2,1.6-13.2,3.1-3,1.5-4.4,4-4.4,7.6s1.2,5.9,3.7,7.6c2.4,1.7,6.2,2.6,11.3,2.6Z"></path><path class="st0" d="M547.5,56.5l-20.6,61.6h-12.9l-21.1-61.6h10.2l18.2,56.4h-1.6l17.7-56.4h10.2Z"></path><path class="st0" d="M552.6,91.2v-8.8h47.6l-1.7,2.9v-1.3c0-3.6-.7-6.8-2.2-9.8-1.5-3-3.7-5.3-6.6-7.1-2.9-1.8-6.6-2.7-10.9-2.7s-8.2.9-11.5,2.8c-3.3,1.9-5.9,4.5-7.8,7.9-1.9,3.4-2.8,7.4-2.8,12.1s.9,8.9,2.7,12.3c1.8,3.4,4.4,6.1,7.7,7.9,3.3,1.9,7.3,2.8,11.8,2.8s6.1-.3,8.5-1c2.4-.7,4.4-1.6,5.9-2.7,1.6-1.1,2.8-2.4,3.6-3.7.8-1.4,1.3-2.7,1.4-4.1h9.9c-.2,2.5-1,4.9-2.3,7.4-1.4,2.4-3.3,4.6-5.7,6.6-2.5,2-5.5,3.6-9.1,4.8-3.6,1.2-7.7,1.8-12.4,1.8s-11.6-1.4-16.4-4.1c-4.7-2.7-8.4-6.5-11.1-11.3-2.7-4.8-4-10.3-4-16.5s1.4-11.8,4.1-16.6c2.7-4.8,6.4-8.5,11.2-11.2,4.8-2.7,10.2-4.1,16.3-4.1s11.6,1.4,16.2,4.1c4.6,2.7,8.1,6.4,10.6,11.1,2.5,4.7,3.7,10,3.7,16s0,1.4,0,2.4c0,1,0,1.7-.2,2h-56.2Z"></path></g><g><path class="st1" d="M12.7,48c3.5,2,8,.8,10-2.7s.8-8-2.7-10-8-.8-10,2.7-.8,8,2.7,10Z"></path><path class="st1" d="M35.3,20.1c2,3.5,6.5,4.7,10,2.7,3.5-2,4.7-6.5,2.7-10-2-3.5-6.5-4.7-10-2.7-3.5,2-4.7,6.5-2.7,10Z"></path><path class="st1" d="M68.9,7.2c0,4,3.2,7.2,7.2,7.2s7.2-3.2,7.2-7.2C83.3,3.2,80.1,0,76.1,0c-4,0-7.2,3.2-7.2,7.2Z"></path><path class="st1" d="M105.1,13.3c-1.7,3-.7,6.8,2.3,8.6,3,1.7,6.8.7,8.6-2.3,1.7-3,.7-6.8-2.3-8.6-3-1.7-6.8-.7-8.6,2.3Z"></path><path class="st1" d="M133.5,37.7c-2.2,1.3-2.9,4-1.7,6.2,1.3,2.2,4,2.9,6.2,1.7s2.9-4,1.7-6.2-4-2.9-6.2-1.7Z"></path><path class="st1" d="M145,72.3c-2.1,0-3.8,1.7-3.8,3.8,0,2.1,1.7,3.8,3.8,3.8,2.1,0,3.8-1.7,3.8-3.8,0-2.1-1.7-3.8-3.8-3.8Z"></path><path class="st1" d="M137.6,107.4c-1.8-1-4-.4-5,1.3-1,1.8-.4,4,1.3,5,1.8,1,4,.4,5-1.3s.4-4-1.3-5Z"></path><path class="st1" d="M113.8,134c-1-1.8-3.3-2.4-5-1.3-1.8,1-2.4,3.3-1.3,5s3.3,2.4,5,1.3c1.8-1,2.4-3.3,1.3-5Z"></path><path class="st1" d="M79.9,145c0-2.1-1.7-3.8-3.8-3.8-2.1,0-3.8,1.7-3.8,3.8,0,2.1,1.7,3.8,3.8,3.8s3.8-1.7,3.8-3.8Z"></path><path class="st1" d="M45.6,138.1c1.3-2.2.5-5-1.7-6.2s-5-.5-6.2,1.7c-1.3,2.2-.5,5,1.7,6.2s5,.5,6.2-1.7Z"></path><path class="st1" d="M19.5,116c3-1.7,4-5.6,2.3-8.6-1.7-3-5.6-4-8.6-2.3-3,1.7-4,5.6-2.3,8.6s5.6,4,8.6,2.3Z"></path><path class="st1" d="M7.2,83.3c4,0,7.2-3.2,7.2-7.2,0-4-3.2-7.2-7.2-7.2-4,0-7.2,3.2-7.2,7.2s3.2,7.2,7.2,7.2Z"></path><path class="st1" d="M18.8,68.2c3.8,1,7.8-1.2,8.8-5.1,1-3.8-1.2-7.8-5.1-8.8s-7.8,1.2-8.8,5.1,1.2,7.8,5.1,8.8Z"></path><path class="st1" d="M30.3,40.6c2.8,2.8,7.5,2.8,10.3,0,2.8-2.8,2.8-7.5,0-10.3-2.8-2.8-7.5-2.8-10.3,0-2.8,2.8-2.8,7.5,0,10.3Z"></path><path class="st1" d="M54.3,22.5c1,3.8,5,6.1,8.8,5.1,3.8-1,6.1-5,5.1-8.8s-5-6.1-8.8-5.1c-3.8,1-6.1,5-5.1,8.8Z"></path><path class="st1" d="M84.5,18.9c-1,3.6,1.2,7.2,4.7,8.2,3.6,1,7.2-1.2,8.2-4.7,1-3.6-1.2-7.2-4.7-8.2-3.6-1-7.2,1.2-8.2,4.7Z"></path><path class="st1" d="M112.9,31.7c-2.1,2.1-2.1,5.5,0,7.6s5.5,2.1,7.6,0,2.1-5.5,0-7.6-5.5-2.1-7.6,0Z"></path><path class="st1" d="M130.5,57.2c-2.2.6-3.6,2.9-3,5.1.6,2.2,2.9,3.6,5.1,3,2.2-.6,3.6-2.9,3-5.1-.6-2.2-2.9-3.6-5.1-3Z"></path><path class="st1" d="M132.6,87.3c-2-.5-4.1.7-4.6,2.7-.5,2,.7,4.1,2.7,4.6s4.1-.7,4.6-2.7c.5-2-.7-4.1-2.7-4.6Z"></path><path class="st1" d="M119.4,114.1c-1.4-1.4-3.8-1.4-5.2,0-1.4,1.4-1.4,3.8,0,5.2s3.8,1.4,5.2,0,1.4-3.8,0-5.2Z"></path><path class="st1" d="M94.6,130.6c-.5-2-2.6-3.2-4.6-2.7-2,.5-3.2,2.6-2.7,4.6.5,2,2.6,3.2,4.6,2.7s3.2-2.6,2.7-4.6Z"></path><path class="st1" d="M65.3,132.7c.6-2.2-.7-4.5-3-5.1s-4.5.7-5.1,3,.7,4.5,3,5.1c2.2.6,4.5-.7,5.1-3Z"></path><path class="st1" d="M39.3,120.5c2.1-2.1,2.1-5.5,0-7.6s-5.5-2.1-7.6,0-2.1,5.5,0,7.6,5.5,2.1,7.6,0Z"></path><path class="st1" d="M22.3,97.4c3.6-1,5.7-4.6,4.7-8.2-1-3.6-4.6-5.7-8.2-4.7-3.6,1-5.7,4.6-4.7,8.2,1,3.6,4.6,5.7,8.2,4.7Z"></path><path class="st1" d="M32.8,59.3c3.4,2,7.7.8,9.7-2.6s.8-7.7-2.6-9.7-7.7-.8-9.7,2.6c-2,3.4-.8,7.7,2.6,9.7Z"></path><path class="st1" d="M47,39.9c2,3.4,6.3,4.6,9.7,2.6s4.6-6.3,2.6-9.7c-2-3.4-6.3-4.6-9.7-2.6s-4.6,6.3-2.6,9.7Z"></path><path class="st1" d="M69.3,30.2c0,3.8,3,6.8,6.8,6.8,3.8,0,6.8-3,6.8-6.8,0-3.8-3-6.8-6.8-6.8-3.8,0-6.8,3-6.8,6.8Z"></path><path class="st1" d="M93.9,33.3c-1.7,2.9-.7,6.5,2.2,8.2,2.9,1.7,6.5.7,8.2-2.2s.7-6.5-2.2-8.2c-2.9-1.7-6.5-.7-8.2,2.2Z"></path><path class="st1" d="M113.5,49c-2.3,1.3-3.1,4.3-1.8,6.6,1.3,2.3,4.3,3.1,6.6,1.8,2.3-1.3,3.1-4.3,1.8-6.6-1.3-2.3-4.3-3.1-6.6-1.8Z"></path><path class="st1" d="M122.1,72c-2.3,0-4.1,1.8-4.1,4.1,0,2.3,1.8,4.1,4.1,4.1s4.1-1.8,4.1-4.1-1.8-4.1-4.1-4.1Z"></path><path class="st1" d="M117.8,95.8c-1.8-1.1-4.2-.4-5.3,1.4s-.4,4.2,1.4,5.3c1.8,1.1,4.2.4,5.3-1.4s.4-4.2-1.4-5.3Z"></path><path class="st1" d="M102.4,114c-1.1-1.8-3.4-2.5-5.3-1.4-1.8,1.1-2.5,3.4-1.4,5.3s3.4,2.5,5.3,1.4c1.8-1.1,2.5-3.4,1.4-5.3Z"></path><path class="st1" d="M80.2,122.1c0-2.3-1.8-4.1-4.1-4.1s-4.1,1.8-4.1,4.1c0,2.3,1.8,4.1,4.1,4.1,2.3,0,4.1-1.8,4.1-4.1Z"></path><path class="st1" d="M57.3,118.3c1.3-2.3.5-5.2-1.8-6.6-2.3-1.3-5.2-.5-6.6,1.8-1.3,2.3-.5,5.2,1.8,6.6,2.3,1.3,5.2.5,6.6-1.8Z"></path><path class="st1" d="M39.3,104.3c2.9-1.7,3.8-5.3,2.2-8.2-1.7-2.9-5.3-3.8-8.2-2.2s-3.8,5.3-2.2,8.2c1.7,2.9,5.3,3.8,8.2,2.2Z"></path><path class="st1" d="M30.2,82.9c3.8,0,6.8-3,6.8-6.8s-3-6.8-6.8-6.8c-3.8,0-6.8,3-6.8,6.8,0,3.8,3,6.8,6.8,6.8Z"></path><path class="st1" d="M41.1,73.7c3.6,1,7.3-1.2,8.2-4.8,1-3.6-1.2-7.3-4.8-8.2-3.6-1-7.3,1.2-8.2,4.8-1,3.6,1.2,7.3,4.8,8.2Z"></path><path class="st1" d="M46.9,56.6c2.7,2.7,7,2.7,9.7,0s2.7-7,0-9.7c-2.7-2.7-7-2.7-9.7,0-2.7,2.7-2.7,7,0,9.7Z"></path><path class="st1" d="M60.7,44.6c1,3.6,4.6,5.7,8.2,4.8,3.6-1,5.7-4.6,4.8-8.2-1-3.6-4.6-5.7-8.2-4.8-3.6,1-5.7,4.6-4.8,8.2Z"></path><path class="st1" d="M79,41.2c-.9,3.3,1.1,6.7,4.4,7.6,3.3.9,6.7-1.1,7.6-4.4s-1.1-6.7-4.4-7.6c-3.3-.9-6.7,1.1-7.6,4.4Z"></path><path class="st1" d="M96.7,47.9c-2.1,2.1-2.1,5.5,0,7.6s5.5,2.1,7.6,0,2.1-5.5,0-7.6-5.5-2.1-7.6,0Z"></path><path class="st1" d="M108.2,62.8c-2.4.7-3.9,3.2-3.2,5.6.7,2.4,3.2,3.9,5.6,3.2s3.9-3.2,3.2-5.6c-.7-2.4-3.2-3.9-5.6-3.2Z"></path><path class="st1" d="M110.5,81c-2.2-.6-4.5.7-5.1,2.9-.6,2.2.7,4.5,2.9,5.1,2.2.6,4.5-.7,5.1-2.9.6-2.2-.7-4.5-2.9-5.1Z"></path><path class="st1" d="M103.3,97.6c-1.6-1.6-4.1-1.6-5.7,0-1.6,1.6-1.6,4.1,0,5.7,1.6,1.6,4.1,1.6,5.7,0,1.6-1.6,1.6-4.1,0-5.7Z"></path><path class="st1" d="M89,108.3c-.6-2.2-2.9-3.5-5.1-2.9s-3.5,2.9-2.9,5.1,2.9,3.5,5.1,2.9c2.2-.6,3.5-2.9,2.9-5.1Z"></path><path class="st1" d="M71.6,110.6c.7-2.4-.8-5-3.2-5.6s-5,.8-5.6,3.2.8,5,3.2,5.6c2.4.7,5-.8,5.6-3.2Z"></path><path class="st1" d="M55.5,104.3c2.1-2.1,2.1-5.5,0-7.6s-5.5-2.1-7.6,0-2.1,5.5,0,7.6,5.5,2.1,7.6,0Z"></path><path class="st1" d="M44.4,91.1c3.3-.9,5.3-4.3,4.4-7.6s-4.3-5.3-7.6-4.4-5.3,4.3-4.4,7.6,4.3,5.3,7.6,4.4Z"></path></g></svg>